PathFileType  4	(X/Y/Z) D:/Data/Berkelmans/SUB01/trc/slow_skatebelt
DataRate	CameraRate	NumFrames	NumMarkers	Units	OrigDataRate	OrigDataStartFrame	OrigNumFrames
100.0	100.0	8	31	m	100.0	301	800
Frame#	Time	LCAL			RCAL			C7			LSHO			RTIB2			RFEM2			LFEM2			RTIB3			RFEM1			LSIPS			RTIB1			LTIB2			RFEM3			RSHO			RKNEE_med			LKNEE_lat			RKNEE_lat			LMTP5			RMTP5			RSIAS			RSIPS			LSIAS			LKNEE_med			LANK_lat			LANK_med			RANK_lat			RANK_med			LTIB3			LTIB1			LFEM3			LFEM1			
		X1	Y1	Z1	X2	Y2	Z2	X3	Y3	Z3	X4	Y4	Z4	X5	Y5	Z5	X6	Y6	Z6	X7	Y7	Z7	X8	Y8	Z8	X9	Y9	Z9	X10	Y10	Z10	X11	Y11	Z11	X12	Y12	Z12	X13	Y13	Z13	X14	Y14	Z14	X15	Y15	Z15	X16	Y16	Z16	X17	Y17	Z17	X18	Y18	Z18	X19	Y19	Z19	X20	Y20	Z20	X21	Y21	Z21	X22	Y22	Z22	X23	Y23	Z23	X24	Y24	Z24	X25	Y25	Z25	X26	Y26	Z26	X27	Y27	Z27	X28	Y28	Z28	X29	Y29	Z29	X30	Y30	Z30	X31	Y31	Z31	

301	0.0050000	0.0047587	0.0672025	-0.0226738	-0.3256075	0.0913250	0.0916937	-0.1771077	1.3793769	-0.0185747	-0.0961556	1.4336486	-0.1509066	-0.1872572	0.3405700	0.1796577	-0.1105311	0.5756848	0.1846545	-0.0008516	0.5977223	-0.1300752	-0.2338279	0.3637708	0.1453801	-0.1449076	0.6779991	0.1854416	-0.1441461	1.0327367	-0.0470202	-0.1826922	0.4092588	0.1762439	0.0292072	0.3356239	-0.1199365	-0.1509714	0.5971665	0.1471638	-0.0934867	1.3949120	0.2185455	-0.0471683	0.4948018	0.0713315	0.0848897	0.4901961	-0.0942525	-0.0609271	0.4819075	0.1645167	0.1629635	0.0442134	-0.0941897	-0.1702991	0.0456580	0.1568352	0.0475345	0.9791826	0.1376392	-0.1458204	1.0254938	0.0675327	0.0512480	0.9813839	-0.0884519	0.0726694	0.5049660	-0.0037692	0.0614301	0.1024467	-0.0764208	0.0855506	0.1086064	0.0015350	-0.2571114	0.1179475	0.1392524	-0.2400333	0.1301064	0.0596923	-0.0253856	0.3487962	-0.0928083	0.0107831	0.4034919	-0.1152282	-0.0567387	0.6009701	-0.0919577	-0.0703164	0.6748770	-0.1416496
302	0.0150000	-0.0007362	0.0671893	-0.0226265	-0.3283465	0.0969829	0.0918201	-0.1768100	1.3798197	-0.0203508	-0.0935817	1.4332440	-0.1509041	-0.1851683	0.3428374	0.1794420	-0.1065462	0.5748913	0.1829795	-0.0039561	0.5978127	-0.1324109	-0.2308920	0.3667691	0.1446785	-0.1425256	0.6767689	0.1833296	-0.1438364	1.0333603	-0.0487214	-0.1790954	0.4113050	0.1756364	0.0278206	0.3359193	-0.1187324	-0.1470817	0.5957048	0.1450433	-0.0938838	1.3952180	0.2171107	-0.0406950	0.4937943	0.0712812	0.0826524	0.4899014	-0.0947038	-0.0560150	0.4816874	0.1647858	0.1577503	0.0442398	-0.0939688	-0.1749979	0.0455681	0.1570812	0.0473623	0.9797340	0.1365794	-0.1458001	1.0257282	0.0657961	0.0516708	0.9819031	-0.0896246	0.0695754	0.5052039	-0.0040015	0.0560588	0.1023738	-0.0763116	0.0799277	0.1087218	0.0016076	-0.2595266	0.1212994	0.1403411	-0.2420980	0.1329913	0.0608003	-0.0231702	0.3491057	-0.0885849	0.0074969	0.4037104	-0.1154713	-0.0591548	0.6008909	-0.0930918	-0.0720254	0.6769428	-0.1397797
303	0.0250000	-0.0061220	0.0671588	-0.0225330	-0.3309101	0.1027025	0.0928903	-0.1768586	1.3802634	-0.0217218	-0.0932017	1.4339153	-0.1523800	-0.1823759	0.3452294	0.1795839	-0.1021485	0.5740194	0.1813198	-0.0083947	0.5990613	-0.1349324	-0.2273779	0.3698831	0.1442301	-0.1396464	0.6753687	0.1813941	-0.1438281	1.0337877	-0.0501727	-0.1748413	0.4135531	0.1751340	0.0243926	0.3359372	-0.1194732	-0.1426408	0.5942868	0.1432083	-0.0943204	1.3954649	0.2156397	-0.0336459	0.4928320	0.0710297	0.0802637	0.4896919	-0.0952532	-0.0503176	0.4813367	0.1653029	0.1522021	0.0441508	-0.0940591	-0.1793377	0.0461386	0.1578805	0.0471410	0.9802674	0.1347935	-0.1459334	1.0260163	0.0640483	0.0521030	0.9825387	-0.0907532	0.0669053	0.5054371	-0.0045952	0.0505077	0.1023355	-0.0763092	0.0729175	0.1096513	0.0024536	-0.2616140	0.1251051	0.1413828	-0.2444035	0.1358657	0.0617484	-0.0269867	0.3497952	-0.0895039	0.0046284	0.4041619	-0.1163168	-0.0630922	0.6021911	-0.0947855	-0.0726670	0.6796734	-0.1387253
304	0.0350000	-0.0116257	0.0671158	-0.0226724	-0.3329323	0.1096701	0.0938020	-0.1766969	1.3809370	-0.0233279	-0.0923123	1.4345234	-0.1536217	-0.1787269	0.3477314	0.1799651	-0.0967059	0.5731199	0.1797983	-0.0085563	0.5994866	-0.1362968	-0.2229338	0.3730646	0.1440598	-0.1362045	0.6736008	0.1799782	-0.1434883	1.0341680	-0.0518149	-0.1694786	0.4158681	0.1748747	0.0209600	0.3361619	-0.1204258	-0.1373827	0.5926162	0.1411962	-0.0947661	1.3955948	0.2142361	-0.0263867	0.4918232	0.0708333	0.0778066	0.4894291	-0.0959628	-0.0437497	0.4809664	0.1659388	0.1467934	0.0440759	-0.0938733	-0.1836321	0.0465795	0.1586139	0.0466375	0.9806916	0.1334776	-0.1462130	1.0261356	0.0625291	0.0523537	0.9831814	-0.0918705	0.0646847	0.5054834	-0.0054311	0.0451690	0.1022303	-0.0763584	0.0674786	0.1096203	0.0024650	-0.2630606	0.1290551	0.1426661	-0.2449218	0.1394420	0.0632491	-0.0308596	0.3502847	-0.0912157	0.0018454	0.4044007	-0.1176106	-0.0631460	0.6032872	-0.0962875	-0.0726458	0.6822860	-0.1390316
305	0.0450000	-0.0170911	0.0671654	-0.0225739	-0.3341641	0.1169716	0.0949728	-0.1763297	1.3814001	-0.0246832	-0.0918861	1.4350983	-0.1547271	-0.1739687	0.3500833	0.1805505	-0.0911574	0.5717891	0.1786399	-0.0101420	0.5998917	-0.1378826	-0.2175058	0.3761325	0.1441743	-0.1325314	0.6716314	0.1784181	-0.1437233	1.0345146	-0.0532304	-0.1633312	0.4179415	0.1747593	0.0169623	0.3354628	-0.1219252	-0.1319247	0.5906498	0.1398236	-0.0953943	1.3956997	0.2128937	-0.0185369	0.4909401	0.0707539	0.0751753	0.4891859	-0.0967071	-0.0364369	0.4804464	0.1667317	0.1413055	0.0441223	-0.0939511	-0.1878826	0.0472094	0.1593112	0.0460183	0.9811615	0.1322021	-0.1464098	1.0263236	0.0610515	0.0525454	0.9838067	-0.0930350	0.0625946	0.5054371	-0.0063940	0.0398598	0.1021821	-0.0765582	0.0619182	0.1095487	0.0023474	-0.2638686	0.1336451	0.1441483	-0.2452080	0.1436656	0.0649579	-0.0396438	0.3509357	-0.0975507	-0.0005005	0.4044565	-0.1193192	-0.0653190	0.6042227	-0.0986520	-0.0726501	0.6838374	-0.1409689
306	0.0550000	-0.0219514	0.0674233	-0.0218453	-0.3349003	0.1252025	0.0960481	-0.1762223	1.3817412	-0.0259118	-0.0912677	1.4357620	-0.1560610	-0.1683609	0.3525060	0.1815359	-0.0849656	0.5702927	0.1777651	-0.0113390	0.6000031	-0.1390714	-0.2111927	0.3791687	0.1447573	-0.1284274	0.6693527	0.1773169	-0.1436278	1.0350139	-0.0547040	-0.1562982	0.4199979	0.1751558	0.0141433	0.3352887	-0.1229729	-0.1258299	0.5882908	0.1386082	-0.0958740	1.3958368	0.2114493	-0.0100763	0.4901059	0.0707910	0.0720903	0.4889276	-0.0974808	-0.0282725	0.4799390	0.1677038	0.1358276	0.0441221	-0.0938768	-0.1918918	0.0483980	0.1599352	0.0452713	0.9815204	0.1309961	-0.1469612	1.0265226	0.0595596	0.0524848	0.9843816	-0.0942544	0.0603990	0.5052316	-0.0074212	0.0344502	0.1021510	-0.0766355	0.0583631	0.1085532	0.0015552	-0.2641349	0.1386682	0.1453913	-0.2448183	0.1484311	0.0665236	-0.0427992	0.3510477	-0.0998779	-0.0029679	0.4043245	-0.1212679	-0.0672272	0.6047236	-0.1010045	-0.0733240	0.6841628	-0.1440613
307	0.0650000	-0.0293748	0.0669556	-0.0242568	-0.3346920	0.1343822	0.0972186	-0.1755859	1.3819943	-0.0271051	-0.0906449	1.4365274	-0.1573474	-0.1619102	0.3548310	0.1825542	-0.0781398	0.5686257	0.1770521	-0.0125155	0.5998089	-0.1398189	-0.2040524	0.3822144	0.1457115	-0.1237713	0.6666479	0.1763093	-0.1439652	1.0354210	-0.0559631	-0.1482131	0.4220993	0.1759690	0.0101718	0.3351688	-0.1241581	-0.1193727	0.5856220	0.1377863	-0.0963582	1.3958530	0.2100744	-0.0007545	0.4893199	0.0710952	0.0690756	0.4885029	-0.0984345	-0.0196345	0.4794412	0.1686990	0.1304486	0.0439606	-0.0938956	-0.1952639	0.0504130	0.1607791	0.0443416	0.9818113	0.1297340	-0.1476376	1.0266281	0.0582779	0.0523540	0.9848089	-0.0952956	0.0577540	0.5047552	-0.0085771	0.0288118	0.1019051	-0.0766721	0.0528693	0.1083734	0.0014993	-0.2635235	0.1444400	0.1467582	-0.2435426	0.1533895	0.0678524	-0.0432586	0.3493173	-0.0998556	-0.0056388	0.4040344	-0.1229097	-0.0689047	0.6047727	-0.1027434	-0.0750091	0.6833282	-0.1475682
308	0.0750000	-0.0350000	0.0669086	-0.0244748	-0.3333712	0.1441653	0.0984353	-0.1752972	1.3819682	-0.0278588	-0.0901040	1.4371102	-0.1581839	-0.1544324	0.3572149	0.1836906	-0.0704669	0.5669070	0.1764145	-0.0136054	0.5999218	-0.1398767	-0.1962028	0.3854520	0.1468465	-0.1188571	0.6636780	0.1758046	-0.1440127	1.0357987	-0.0573901	-0.1394086	0.4241263	0.1770723	0.0069383	0.3350494	-0.1252014	-0.1120667	0.5828650	0.1371038	-0.0971027	1.3957936	0.2089061	0.0092247	0.4886628	0.0714642	0.0662017	0.4879725	-0.0990714	-0.0104370	0.4792987	0.1693715	0.1248759	0.0438995	-0.0938560	-0.1985723	0.0527950	0.1615012	0.0431934	0.9819777	0.1284881	-0.1482747	1.0268006	0.0569591	0.0521603	0.9849873	-0.0964363	0.0549160	0.5042075	-0.0095146	0.0208505	0.1034675	-0.0776663	0.0470758	0.1082973	0.0014704	-0.2620747	0.1505859	0.1482079	-0.2421372	0.1589893	0.0692900	-0.0460577	0.3490136	-0.1013900	-0.0085625	0.4037584	-0.1241585	-0.0707201	0.6058170	-0.1032166	-0.0772010	0.6819543	-0.1511058
